<svg xmlns="http://www.w3.org/2000/svg" width="17.46" height="20.695" viewBox="0 0 17.46 20.695"><g transform="translate(-2.933 -13.31)"><g transform="translate(2.933 13.31)"><path d="M3.073,17.128c.06-.21.12-.42.181-.63a4.958,4.958,0,0,1,1.16-2,5.6,5.6,0,0,1,1.232-.965A1.486,1.486,0,0,1,7.61,13.9c.528.687,1.043,1.385,1.563,2.079.3.4.6.8.9,1.2a1.518,1.518,0,0,1-.24,2.17c-.435.361-.9.688-1.351,1.026-.126.094-.263.174-.4.26A16.486,16.486,0,0,0,9.913,24.4a14.839,14.839,0,0,0,3.831,3.788c.372-.283.748-.571,1.126-.856.191-.144.381-.292.578-.428a1.5,1.5,0,0,1,1.825,0,3.048,3.048,0,0,1,.555.625c.745.984,1.478,1.977,2.222,2.961a1.948,1.948,0,0,1,.343.934l-.061.424a2.822,2.822,0,0,1-.309.538,4.868,4.868,0,0,1-1.516,1.115,4.674,4.674,0,0,1-3.29.342,11.817,11.817,0,0,1-3.4-1.527,16.19,16.19,0,0,1-2.32-1.817,21.629,21.629,0,0,1-2.48-2.742A33.669,33.669,0,0,1,4.978,24.8a15.349,15.349,0,0,1-1.7-3.7,8.384,8.384,0,0,1-.348-2.337c0-.224,0-.447,0-.671Q3,17.613,3.073,17.128Z" transform="translate(-2.933 -13.31)" fill="#2fac66"/></g></g></svg>